:SAMPLES-PER-SECOND 30
:FULLY-SPECIFIED
:DEGREES
742
root  -48.8784 40.0102 -0.812656 179.115 -86.548 170.511
RightUpLeg  0.65258 -9.40993 -1.33082
RightLeg  16.775 7.00664 2.87789
RightFoot  -5.68105 0.0690461 -2.18643
RightToes  -1.33073e-015 0 -3.6325e-017
Spine  4.40896 -1.96053 8.38162
Spine1  12.6127 -0.917811 -0.314465
HEad  -19.9108 -11.844 -4.35168
LeftShoulder1  0.639847 1.64249 -28.239
LeftArm  9.66844 -5.88605 -49.5763
LeftForeArm  14.8936 -26.5696 -4.90227
LeftHand  -0.118734 1.71951 3.53655
RightShoulder  -0.0988813 -3.79568 24.7449
RightArm  25.6425 18.373 53.497
RightForeArm  -5.06154 16.8136 6.90122
RightHand  -0.604637 5.84418 -6.5635
LeftUpLeg  -2.70449 5.3372 4.84478
LeftLeg  37.3874 1.59424 1.66686
LeftFoot  -7.85744 0.193636 -4.81427
LeftToes  -1.03319e-009 7.52634e-011 -3.26162e-012
743
root  -48.1903 39.9091 -0.75429 166.48 -87.0788 -176.817
RightUpLeg  -0.580911 -9.4527 -0.535691
RightLeg  16.9041 6.33436 3.01378
RightFoot  -4.75379 0.0799452 -1.92475
RightToes  -1.33073e-015 0 -3.6325e-017
Spine  4.78455 -2.34376 8.06462
Spine1  11.926 -1.57644 0.86415
HEad  -20.1266 -11.7153 -3.90303
LeftShoulder1  0.602335 1.76855 -28.6421
LeftArm  12.8002 -4.80509 -50.0238
LeftForeArm  13.2549 -23.7971 -4.43137
LeftHand  -0.0748983 2.93865 2.8395
RightShoulder  -0.0901016 -3.76521 24.944
RightArm  23.4491 15.8669 53.0353
RightForeArm  -1.80915 14.0037 7.92151
RightHand  -0.542693 4.78196 -6.4771
LeftUpLeg  -0.503833 4.29872 5.25142
LeftLeg  39.1885 -0.252134 0.153619
LeftFoot  -8.68237 0.186397 -5.75676
LeftToes  -1.03319e-009 7.52634e-011 -3.26162e-012
744
root  -47.4628 39.8379 -0.69379 153.85 -87.0489 -163.91
RightUpLeg  -2.17642 -9.14377 0.357118
RightLeg  16.9173 5.79089 3.0102
RightFoot  -3.36935 0.154602 -2.55158
RightToes  -1.33073e-015 0 -3.6325e-017
Spine  5.85989 -2.693 7.28736
Spine1  10.131 -2.2806 2.31233
HEad  -19.7973 -11.2272 -3.52968
LeftShoulder1  0.450639 2.22804 -29.1979
LeftArm  13.3117 -3.15989 -49.9484
LeftForeArm  14.2636 -20.7898 -4.97302
LeftHand  -0.0397746 3.42405 1.37457
RightShoulder  -0.0349797 -3.58224 24.9718
RightArm  19.4337 12.752 52.6676
RightForeArm  2.50544 10.5616 8.62582
RightHand  -0.493773 4.35319 -6.15824
LeftUpLeg  2.01441 3.61065 5.43467
LeftLeg  38.9553 -2.58702 -1.86182
LeftFoot  -9.26861 0.180437 -6.9675
LeftToes  -1.03319e-009 7.52634e-011 -3.26162e-012
745
root  -46.704 39.7321 -0.614676 145.328 -86.9035 -155.064
RightUpLeg  -3.81914 -8.83818 1.06121
RightLeg  16.8214 5.26896 2.98741
RightFoot  -2.12594 0.196251 -2.61282
RightToes  -1.33073e-015 0 -3.6325e-017
Spine  5.47956 -2.67616 7.42909
Spine1  10.4833 -2.22634 2.16117
HEad  -20.0003 -11.6185 -2.63799
LeftShoulder1  0.487019 2.10926 -28.8685
LeftArm  8.88572 -2.99287 -50.2784
LeftForeArm  19.9352 -15.9745 -7.34018
LeftHand  -0.0289514 3.74826 0.554094
RightShoulder  -0.225673 -4.16978 26.4308
RightArm  15.9816 10.509 51.3646
RightForeArm  5.18497 7.10066 8.62764
RightHand  -0.450887 3.80663 -5.94729
LeftUpLeg  4.6526 2.89438 5.33771
LeftLeg  37.2483 -5.78726 -4.34301
LeftFoot  -10.4565 0.130029 -8.84528
LeftToes  -1.03319e-009 7.52634e-011 -3.26162e-012
746
root  -45.8993 39.6491 -0.528201 136.247 -86.6608 -145.396
RightUpLeg  -5.41794 -8.39245 1.78144
RightLeg  15.9425 4.70608 3.05081
RightFoot  -0.576131 0.227517 -2.4608
RightToes  -1.33073e-015 0 -3.6325e-017
Spine  5.14743 -2.64393 6.47806
Spine1  10.563 -2.74413 3.60169
HEad  -20.6244 -11.208 -2.71214
LeftShoulder1  0.362875 2.50444 -30.1455
LeftArm  4.91876 -2.94241 -49.1212
LeftForeArm  24.813 -11.7583 -9.24916
LeftHand  -0.0208592 4.61527 -0.641359
RightShoulder  -0.155333 -3.95828 26.0244
RightArm  13.3177 7.43361 51.0211
RightForeArm  6.42894 4.30435 7.79338
RightHand  -0.397403 3.09007 -5.67175
LeftUpLeg  6.88231 2.39178 5.21978
LeftLeg  34.3997 -8.09153 -5.5769
LeftFoot  -12.4169 -0.00542581 -8.59377
LeftToes  -1.03319e-009 7.52634e-011 -3.26162e-012
747
root  -45.032 39.6392 -0.431072 132.709 -86.9202 -141.412
RightUpLeg  -6.54004 -8.18702 1.7696
RightLeg  14.2276 4.10366 3.09865
RightFoot  1.42139 0.257544 -2.2034
RightToes  -1.33073e-015 0 -3.6325e-017
Spine  4.63739 -2.47983 5.17236
Spine1  11.2918 -3.0531 4.18545
HEad  -22.0134 -11.2567 -2.11523
LeftShoulder1  0.384774 2.45391 -30.5478
LeftArm  -0.110528 -2.71248 -48.8753
LeftForeArm  29.4027 -7.96649 -9.81575
LeftHand  -0.0268235 5.14939 -0.995079
RightShoulder  -0.222453 -4.16103 26.2962
RightArm  10.9849 4.88399 50.2854
RightForeArm  6.41539 2.2161 6.864
RightHand  -0.362819 2.56917 -5.49946
LeftUpLeg  9.03916 1.80853 4.32898
LeftLeg  29.6129 -8.35164 -4.79931
LeftFoot  -14.1135 -0.0398126 -5.48546
LeftToes  -1.03319e-009 7.52634e-011 -3.26162e-012
